<mxfile host="app.diagrams.net" modified="2023-01-20T13:42:40.820Z" agent="5.0 (Windows NT 10.0; Win64; x64) AppleWebKit/537.36 (KHTML, like Gecko) Chrome/108.0.0.0 Safari/537.36 Edg/108.0.1462.42" etag="PzciuCQqJKsMI1q-EHaQ" version="20.8.5" type="github">
  <diagram id="6I0OCvxSQrVGMHxT2VVA" name="Page-1">
    <mxGraphModel dx="1147" dy="734" grid="1" gridSize="10" guides="1" tooltips="1" connect="1" arrows="1" fold="1" page="1" pageScale="1" pageWidth="850" pageHeight="1100" math="0" shadow="0">
      <root>
        <mxCell id="0" />
        <mxCell id="1" parent="0" />
        <mxCell id="SGIsHYCIq1H-L2krvLl8-10" value="" style="shape=folder;spacingTop=10;tabWidth=100;tabHeight=25;tabPosition=left;html=1;dashed=1;" vertex="1" parent="1">
          <mxGeometry x="440" y="170" width="1030" height="210" as="geometry" />
        </mxCell>
        <mxCell id="dKdSaXE48SgPbhcamS2K-63" value="Advice" style="text;strokeColor=none;fillColor=none;html=1;fontSize=24;fontStyle=1;verticalAlign=middle;align=center;" parent="1" vertex="1">
          <mxGeometry x="50" y="70" width="1590" height="40" as="geometry" />
        </mxCell>
        <mxCell id="SGIsHYCIq1H-L2krvLl8-9" style="edgeStyle=orthogonalEdgeStyle;rounded=0;orthogonalLoop=1;jettySize=auto;html=1;entryX=0;entryY=0.5;entryDx=0;entryDy=0;entryPerimeter=0;" edge="1" parent="1" source="SGIsHYCIq1H-L2krvLl8-2" target="SGIsHYCIq1H-L2krvLl8-5">
          <mxGeometry relative="1" as="geometry" />
        </mxCell>
        <mxCell id="SGIsHYCIq1H-L2krvLl8-2" value="Proposal Creation" style="html=1;outlineConnect=0;whiteSpace=wrap;fillColor=#ffff99;shape=mxgraph.archimate3.application;appType=func;archiType=rounded;" vertex="1" parent="1">
          <mxGeometry x="550" y="240" width="150" height="75" as="geometry" />
        </mxCell>
        <mxCell id="SGIsHYCIq1H-L2krvLl8-7" value="" style="edgeStyle=orthogonalEdgeStyle;rounded=0;orthogonalLoop=1;jettySize=auto;html=1;entryX=0;entryY=0.5;entryDx=0;entryDy=0;entryPerimeter=0;" edge="1" parent="1" source="SGIsHYCIq1H-L2krvLl8-5" target="SGIsHYCIq1H-L2krvLl8-8">
          <mxGeometry relative="1" as="geometry">
            <mxPoint x="912.5" y="277.5" as="targetPoint" />
          </mxGeometry>
        </mxCell>
        <mxCell id="SGIsHYCIq1H-L2krvLl8-5" value="" style="html=1;outlineConnect=0;whiteSpace=wrap;fillColor=#ffff99;shape=mxgraph.archimate3.interaction;" vertex="1" parent="1">
          <mxGeometry x="780" y="240" width="75" height="75" as="geometry" />
        </mxCell>
        <mxCell id="SGIsHYCIq1H-L2krvLl8-8" value="Single Order Visualizartion" style="html=1;outlineConnect=0;whiteSpace=wrap;fillColor=#ffff99;shape=mxgraph.archimate3.application;appType=func;archiType=rounded;" vertex="1" parent="1">
          <mxGeometry x="940" y="240" width="150" height="75" as="geometry" />
        </mxCell>
        <mxCell id="SGIsHYCIq1H-L2krvLl8-11" value="Advisor" style="html=1;outlineConnect=0;whiteSpace=wrap;fillColor=#ffff99;verticalLabelPosition=bottom;verticalAlign=top;align=center;shape=mxgraph.archimate3.actor;" vertex="1" parent="1">
          <mxGeometry x="1250" y="227.5" width="50" height="95" as="geometry" />
        </mxCell>
        <mxCell id="SGIsHYCIq1H-L2krvLl8-13" value="Order Visualization" style="html=1;outlineConnect=0;whiteSpace=wrap;fillColor=#ffff99;shape=mxgraph.archimate3.process;direction=west;" vertex="1" parent="1">
          <mxGeometry x="1110" y="260" width="120" height="30" as="geometry" />
        </mxCell>
      </root>
    </mxGraphModel>
  </diagram>
</mxfile>
